HIERARCHY
ROOT Hips
{
	OFFSET	0.00	0.00	0.00
	CHANNELS 6 Xposition Yposition Zposition Zrotation Xrotation Yrotation
	JOINT LeftUpLeg
	{
		OFFSET	 0.126116	-0.014019	-0.065224
		CHANNELS 3 Zrotation Xrotation Yrotation
		JOINT LeftLeg
		{
			OFFSET	 0.000000	 0.000000	 0.569914
			CHANNELS 3 Zrotation Xrotation Yrotation
			JOINT LeftFoot
			{
				OFFSET	 0.000000	 0.000000	 0.544423
				CHANNELS 3 Zrotation Xrotation Yrotation
				JOINT LeftToeBase
				{
					OFFSET	 0.000000	 0.000000	 0.207117
					CHANNELS 3 Zrotation Xrotation Yrotation
					End Site
					{
						OFFSET	 0.000000	 0.000000	 0.207117
					}
				}
			}
		}
	}
	JOINT RightUpLeg
	{
		OFFSET	-0.124023	-0.008373	-0.065224
		CHANNELS 3 Zrotation Xrotation Yrotation
		JOINT RightLeg
		{
			OFFSET	 0.000000	 0.000000	 0.570047
			CHANNELS 3 Zrotation Xrotation Yrotation
			JOINT RightFoot
			{
				OFFSET	 0.000000	 0.000000	 0.544354
				CHANNELS 3 Zrotation Xrotation Yrotation
				JOINT RightToeBase
				{
					OFFSET	 0.000000	 0.000000	 0.207540
					CHANNELS 3 Zrotation Xrotation Yrotation
					End Site
					{
						OFFSET	 0.000000	 0.000000	 0.207540
					}
				}
			}
		}
	}
	JOINT Spine
	{
		OFFSET	 0.000184	-0.007763	 0.117403
		CHANNELS 3 Zrotation Xrotation Yrotation
		JOINT Spine1
		{
			OFFSET	 0.000000	 0.000000	 0.137269
			CHANNELS 3 Zrotation Xrotation Yrotation
			JOINT Spine2
			{
				OFFSET	 0.000000	 0.000000	 0.156879
				CHANNELS 3 Zrotation Xrotation Yrotation
				JOINT LeftShoulder
				{
					OFFSET	 0.080501	-0.002496	 0.160144
					CHANNELS 3 Zrotation Xrotation Yrotation
					JOINT LeftArm
					{
						OFFSET	 0.000000	 0.000000	 0.164363
						CHANNELS 3 Zrotation Xrotation Yrotation
						JOINT LeftForeArm
						{
							OFFSET	 0.000000	 0.000000	 0.364576
							CHANNELS 3 Zrotation Xrotation Yrotation
							JOINT LeftHand
							{
								OFFSET	 0.000000	 0.000000	 0.360812
								CHANNELS 3 Zrotation Xrotation Yrotation
								JOINT LeftHandIndex1
								{
									OFFSET	 0.000000	 0.000000	 0.086006
									CHANNELS 3 Zrotation Xrotation Yrotation
									JOINT LeftHandIndex2
									{
										OFFSET	 0.000000	 0.000000	 0.047237
										CHANNELS 3 Zrotation Xrotation Yrotation
										JOINT LeftHandIndex3
										{
											OFFSET	-0.004284	-0.000551	 0.038165
											CHANNELS 3 Zrotation Xrotation Yrotation
											End Site
											{
												OFFSET	-0.004284	-0.000551	 0.038165
											}
										}
									}
								}
							}
						}
					}
				}
				JOINT Neck
				{
					OFFSET	 0.000000	 0.000000	 0.176489
					CHANNELS 3 Zrotation Xrotation Yrotation
					JOINT Head
					{
						OFFSET	 0.000000	-0.001747	 0.077940
						CHANNELS 3 Zrotation Xrotation Yrotation
						End Site
						{
							OFFSET	 0.000000	-0.001747	 0.077940
						}
					}
				}
				JOINT RightShoulder
				{
					OFFSET	-0.080363	 0.000306	 0.159706
					CHANNELS 3 Zrotation Xrotation Yrotation
					JOINT RightArm
					{
						OFFSET	 0.000000	 0.000000	 0.164196
						CHANNELS 3 Zrotation Xrotation Yrotation
						JOINT RightForeArm
						{
							OFFSET	 0.000000	 0.000000	 0.365611
							CHANNELS 3 Zrotation Xrotation Yrotation
							JOINT RightHand
							{
								OFFSET	 0.000000	 0.000000	 0.360648
								CHANNELS 3 Zrotation Xrotation Yrotation
								JOINT RightHandIndex1
								{
									OFFSET	 0.000000	 0.000000	 0.069977
									CHANNELS 3 Zrotation Xrotation Yrotation
									JOINT RightHandIndex2
									{
										OFFSET	 0.000000	 0.000000	 0.052305
										CHANNELS 3 Zrotation Xrotation Yrotation
										JOINT RightHandIndex3
										{
											OFFSET	 0.009002	-0.000782	 0.042196
											CHANNELS 3 Zrotation Xrotation Yrotation
											End Site
											{
												OFFSET	 0.009002	-0.000782	 0.042196
											}
										}
									}
								}
							}
						}
					}
				}
			}
		}
	}
}
MOTION
Frames:    7
Frame Time: 0.03333334
-0.719731	-0.057563	 1.249259	 169.108200	-9.217331	-0.788751	-25.626290	-0.374258	-168.820700	-1.715431	-29.796450	-1.580958	 13.498350	 78.109340	-27.449730	-2.385833	 28.452760	 0.000004	-0.082593	-2.808719	-176.797700	 11.031300	-36.560280	 6.758292	-90.191370	 84.042600	 92.018540	 2.384659	 28.388700	-0.000001	 13.703140	 4.519099	-14.021210	 8.660741	 4.777366	-2.463110	 0.888652	 4.959283	 3.305733	-91.776190	 78.527380	-180.000000	-23.338290	 47.675820	-18.155840	-29.250480	 25.499820	-72.295970	-42.039410	-35.253010	-24.438420	-4.130354	 21.526190	 0.991307	-5.167926	 0.731697	 3.519349	-1.378229	 35.397820	-2.634230	 14.909000	 5.163124	-3.918185	 6.069763	-14.401230	-4.816705	 89.782180	 78.203850	 179.999900	-48.853580	 4.378458	 91.747630	 7.373260	 3.984463	 139.231800	-3.929305	-4.647364	-0.677912	 5.716295	 19.173350	-3.684826	 5.027458	 0.246833	-9.377971	-2.350882	 35.473990	 5.254307
-0.718125	-0.058195	 1.248478	 168.704800	-8.281188	-0.508329	-26.489860	-1.521078	-169.088300	-1.424450	-29.775490	-1.435158	 13.740260	 77.750600	-27.728720	-2.385833	 28.452760	 0.000004	-0.696563	-4.244915	-176.574100	 11.454950	-36.930600	 7.077648	-91.075780	 84.433030	 92.784610	 2.384659	 28.388700	-0.000001	 15.177840	 1.702927	-14.090630	 10.054670	 7.076926	-2.176248	 0.924004	 3.067338	 2.886779	-91.776150	 78.527360	 180.000000	-29.624730	 44.186370	-19.945700	-26.600510	 26.850970	-78.650220	-43.699570	-35.461850	-25.583880	-4.130354	 21.526190	 0.991307	-5.167926	 0.731697	 3.519349	-1.378229	 35.397820	-2.634230	 15.115340	 5.545331	-4.640937	 5.948437	-16.433550	-4.927655	 89.782070	 78.203900	-180.000000	-48.043770	 2.534945	 93.418230	 8.606222	 2.840753	 136.852400	-8.896047	-3.348408	-1.468997	 5.716295	 19.173350	-3.684826	 5.027458	 0.246833	-9.377971	-2.350882	 35.473990	 5.254307
-0.718257	-0.057817	 1.248745	 168.212500	-7.107166	-0.409409	-27.608960	-2.428398	-169.414400	-1.079013	-29.441340	-1.250404	 13.469140	 77.264400	-27.417440	-2.385833	 28.452760	 0.000004	-1.399209	-5.719203	-176.449400	 11.946380	-37.392260	 7.459185	-97.494060	 84.633670	 99.164120	 2.384659	 28.388700	-0.000001	 17.212000	-1.742797	-14.066120	 12.077310	 9.163889	-2.764380	 0.833459	 1.278874	 2.936900	-91.776300	 78.527400	-179.999900	-34.611930	 40.603790	-26.730380	-24.677390	 27.644040	-83.058800	-45.127800	-35.393230	-26.238300	-4.130354	 21.526190	 0.991307	-5.167926	 0.731697	 3.519349	-1.378229	 35.397820	-2.634230	 15.145680	 5.911399	-5.213516	 5.845150	-18.649870	-5.179331	 89.782010	 78.203870	-179.999900	-46.171630	 0.157558	 94.963650	 10.264650	 0.930265	 133.623800	-15.089310	-1.203019	-2.942173	 5.716295	 19.173350	-3.684826	 5.027458	 0.246833	-9.377971	-2.350882	 35.473990	 5.254307
-0.722232	-0.055977	 1.250275	 167.782100	-6.429682	 0.073796	-28.777390	-2.748428	-169.618100	-0.675558	-29.476700	-1.053004	 15.362010	 77.563840	-29.384710	-2.385833	 28.452760	 0.000004	-2.362082	-6.172367	-176.520700	 12.351860	-37.109860	 7.663525	-100.419300	 84.798240	 102.029300	 2.384659	 28.388700	-0.000001	 19.200440	-4.738405	-14.111160	 14.328820	 10.401520	-5.944989	 0.545921	 0.272939	 4.088473	-91.776130	 78.527400	 180.000000	-36.613830	 38.699310	-35.465560	-24.424390	 27.685320	-83.632390	-46.028610	-35.342670	-26.368010	-4.130354	 21.526190	 0.991307	-5.167926	 0.731697	 3.519349	-1.378229	 35.397820	-2.634230	 14.710350	 5.435833	-4.983866	 5.510595	-19.626730	-5.937036	 89.782140	 78.203890	 180.000000	-43.574940	-2.659830	 96.375630	 11.647260	-1.114124	 129.234000	-21.311460	 0.940381	-4.459452	 5.716295	 19.173350	-3.684826	 5.027458	 0.246833	-9.377971	-2.350882	 35.473990	 5.254307
-0.726069	-0.053908	 1.251870	 167.535100	-5.870377	 0.576582	-29.464120	-3.187126	-170.017900	-0.441132	-29.563920	-0.940075	 16.042740	 77.163990	-29.955720	-2.385833	 28.452760	 0.000004	-3.121322	-6.983314	-176.661200	 12.805810	-37.207360	 7.963889	-105.572000	 85.027000	 107.149900	 2.384659	 28.388700	-0.000001	 21.136670	-7.488003	-14.300890	 16.529490	 10.818410	-8.221694	 0.088854	-0.240321	 4.819618	-91.776190	 78.527400	-180.000000	-35.543910	 36.802940	-43.979980	-25.094100	 27.395090	-82.143680	-45.700100	-34.950180	-25.448920	-4.130354	 21.526190	 0.991307	-5.167926	 0.731697	 3.519349	-1.378229	 35.397820	-2.634230	 14.066400	 5.036164	-4.594521	 4.938304	-20.734090	-7.296762	 89.782070	 78.203900	-180.000000	-39.312090	-3.731651	 99.314540	 12.302770	-2.744008	 123.204200	-25.090890	 3.425998	-6.721629	 5.716295	 19.173350	-3.684826	 5.027458	 0.246833	-9.377971	-2.350882	 35.473990	 5.254307
-0.728203	-0.050263	 1.253052	 167.422900	-4.992838	 1.156049	-30.810010	-3.906795	-170.505200	-0.053248	-29.575070	-0.748798	 16.804280	 76.806190	-30.736710	-2.385833	 28.452760	 0.000004	-4.114738	-7.899607	-176.684600	 13.387920	-37.625300	 8.406796	-116.357400	 85.313410	 117.795600	 2.384659	 28.388700	-0.000001	 23.011900	-10.507410	-13.995180	 18.694390	 10.975860	-9.351645	-0.441565	-0.437196	 4.753080	-91.776180	 78.527360	-180.000000	-32.634340	 34.753290	-53.546960	-26.067880	 26.737300	-79.801680	-44.533410	-34.428420	-23.759340	-4.130354	 21.526190	 0.991307	-5.167926	 0.731697	 3.519349	-1.378229	 35.397820	-2.634230	 13.314150	 4.054815	-4.225187	 4.187505	-20.995440	-9.269856	 89.782130	 78.203900	 180.000000	-33.467080	-1.958951	 103.864600	 12.264870	-4.018960	 114.883200	-26.596350	 7.043705	-8.383880	 5.716295	 19.173350	-3.684826	 5.027458	 0.246833	-9.377971	-2.350882	 35.473990	 5.254307
-0.730159	-0.044644	 1.253645	 167.437100	-4.420708	 1.976381	-32.289620	-4.582920	-170.923800	 0.471903	-29.984770	-0.495680	 16.978240	 76.760580	-31.036460	-2.385833	 28.452760	 0.000004	-5.314732	-8.251631	-176.738200	 13.873470	-37.666080	 8.722231	-125.359100	 85.311650	 126.687800	 2.384659	 28.388700	-0.000001	 24.609600	-13.014690	-13.624440	 20.576770	 10.762230	-10.349600	-0.954533	-0.576540	 4.631277	-91.776210	 78.527380	-179.999900	-30.101350	 32.563960	-61.183670	-27.138710	 25.955420	-77.110910	-43.115220	-33.750640	-21.854160	-4.130354	 21.526190	 0.991307	-5.167926	 0.731697	 3.519349	-1.378229	 35.397820	-2.634230	 12.649770	 3.848653	-3.974760	 3.537595	-21.948640	-10.562630	 89.782080	 78.203870	-180.000000	-27.783540	 2.722611	 107.369500	 11.863720	-5.597065	 106.183800	-27.671070	 12.649870	-7.330106	 5.716295	 19.173350	-3.684826	 5.027458	 0.246833	-9.377971	-2.350882	 35.473990	 5.254307
